<?xml version="1.0" encoding="utf-8"?>
<!-- Generator: Adobe Illustrator 23.1.1, SVG Export Plug-In . SVG Version: 6.00 Build 0)  -->
<svg version="1.1" id="Layer_1" xmlns="http://www.w3.org/2000/svg" xmlns:xlink="http://www.w3.org/1999/xlink" x="0px" y="0px"
	 viewBox="0 0 1000 1100" style="enable-background:new 0 0 1000 1100;" xml:space="preserve">
<style type="text/css">
	.st0{fill:#FFFFFF;}
</style>
<title>re-drawn-white</title>
<g>

		<image style="overflow:visible;opacity:0.75;" width="828" height="792" xlink:href="5DB00EE401A8A444.png"  transform="matrix(1 0 0 1 119 95)">
	</image>
	<g>
		<polygon class="st0" points="470,484 510,103 519,471 746,260 539.5,508.5 924.5,570.5 534.5,549.5 760.5,832.5 511.5,595.5
			481.5,811.5 482.5,597.5 288.5,864.5 452.5,574.5 127.5,627.5 445.5,528.5 232.5,311.5 		"/>
	</g>
</g>
<g>

		<image style="overflow:visible;opacity:0.75;" width="74" height="74" xlink:href="5DB00EE401A8A445.png"  transform="matrix(1 0 0 1 481 70)">
	</image>
	<g>
		<circle class="st0" cx="511" cy="100" r="22"/>
	</g>
</g>
<g>

		<image style="overflow:visible;opacity:0.75;" width="74" height="74" xlink:href="5DB00EE401A8A443.png"  transform="matrix(1 0 0 1 255 835)">
	</image>
	<g>
		<circle class="st0" cx="285" cy="865" r="22"/>
	</g>
</g>
<g>

		<image style="overflow:visible;opacity:0.75;" width="74" height="74" xlink:href="5DB00EE401A8A44C.png"  transform="matrix(1 0 0 1 97 598)">
	</image>
	<g>
		<circle class="st0" cx="127" cy="628" r="22"/>
	</g>
</g>
<g>

		<image style="overflow:visible;opacity:0.75;" width="68" height="68" xlink:href="5DB00EE401A8A44F.png"  transform="matrix(1 0 0 1 209 288)">
	</image>
	<g>
		<circle class="st0" cx="236" cy="315" r="19"/>
	</g>
</g>
<g>

		<image style="overflow:visible;opacity:0.75;" width="62" height="62" xlink:href="5DB00EE401A8A44D.png"  transform="matrix(1 0 0 1 718 240)">
	</image>
	<g>
		<circle class="st0" cx="742" cy="264" r="16"/>
	</g>
</g>
<g>

		<image style="overflow:visible;opacity:0.75;" width="76" height="76" xlink:href="5DB00EE401A8A442.png"  transform="matrix(1 0 0 1 892 543)">
	</image>
	<g>
		<circle class="st0" cx="923" cy="574" r="23"/>
	</g>
</g>
<g>

		<image style="overflow:visible;opacity:0.75;" width="76" height="76" xlink:href="5DB00EE401A8A446.png"  transform="matrix(1 0 0 1 727 801)">
	</image>
	<g>
		<circle class="st0" cx="758" cy="832" r="23"/>
	</g>
</g>
<g>

		<image style="overflow:visible;opacity:0.75;" width="64" height="64" xlink:href="5DB00EE401A8A447.png"  transform="matrix(1 0 0 1 457 787)">
	</image>
	<g>
		<circle class="st0" cx="482" cy="812" r="17"/>
	</g>
</g>
<g>

		<image style="overflow:visible;opacity:0.75;" width="74" height="81" xlink:href="8A7226F43D5FBE23.png"  transform="matrix(1 0 0 1 229 941)">
	</image>
	<g>
		<path class="st0" d="M278.5,962.7c-0.5-2.2-1.4-4.2-2.4-6.2c-1.2-2-2-2.5-6.1-2.5h-7.5v36.5c0,5.8,0.6,6.7,7.7,7.1v2.1h-21.8v-2.1
			c7-0.5,7.6-1.2,7.6-7.1V954h-6.8c-4.1,0-5.3,0.5-6.6,2.7c-1,1.9-1.8,4-2.5,6.1h-2.2c0.4-4.6,0.9-9.3,1.1-13.5h1.7
			c1.1,1.8,1.9,1.7,4,1.7h29.7c2.1,0,2.7-0.3,3.8-1.7h1.8c0,3.5,0.3,8.9,0.7,13.3L278.5,962.7z"/>
	</g>
</g>
<g>

		<image style="overflow:visible;opacity:0.75;" width="84" height="79" xlink:href="8A7226F43D5FBE21.png"  transform="matrix(1 0 0 1 278 943)">
	</image>
	<g>
		<path class="st0" d="M339.1,953c-6.2,0.6-6.8,1-6.8,7.3v30.1c0,6.3,0.7,6.5,6.8,7.2v2.1H319v-2.1c6.2-0.8,6.8-0.9,6.8-7.2v-15
			h-25.7v15c0,6.2,0.6,6.5,6.8,7.2v2.1h-20v-2.1c6.1-0.7,6.8-0.9,6.8-7.2v-30.1c0-6.3-0.7-6.7-6.8-7.3v-2h20v2.1
			c-6,0.5-6.8,1-6.8,7.3v11.9h25.6v-12c0-6.2-0.8-6.8-6.8-7.3v-2h20.1L339.1,953z"/>
	</g>
</g>
<g>

		<image style="overflow:visible;opacity:0.75;" width="71" height="80" xlink:href="8A7226F43D5FBE27.png"  transform="matrix(1 0 0 1 337 942)">
	</image>
	<g>
		<path class="st0" d="M385.6,987.8c-0.5,2-2.5,9.7-3.2,11.9h-36.4v-2.1c7-0.5,7.5-1.2,7.5-7.3v-29.6c0-6.7-0.8-7-6.5-7.6v-2h23
			c7,0,10-0.1,10.9-0.2c0.1,1.9,0.4,7.5,0.7,11.5l-2.2,0.4c-0.5-2-1.3-3.9-2.3-5.7c-1.2-2.5-2.9-3-7.4-3h-7.1
			c-2.3,0-2.5,0.2-2.5,2.4V973h8.3c5.6,0,6-1.1,6.9-6.2h2.3v15.5h-2.3c-1-5.4-1.6-6.2-7-6.2h-8.2V991c0,5.2,1.6,5.7,5.4,5.8h7
			c4.6,0,5.3-0.7,7-2.6c1.6-2.1,3-4.4,4-6.9L385.6,987.8z"/>
	</g>
</g>
<g>

		<image style="overflow:visible;opacity:0.75;" width="69" height="79" xlink:href="8A7226F43D5FBE22.png"  transform="matrix(1 0 0 1 399 943)">
	</image>
	<g>
		<path class="st0" d="M446,987.2c-0.5,2.3-2.7,10.1-3.5,12.5h-34.9v-2.1c6.8-0.7,7.4-1,7.4-7.4v-29.8c0-6.4-0.8-6.8-6.8-7.3V951
			h20.1v2.1c-6,0.6-6.8,0.9-6.8,7.3V991c0,4.6,0.6,5.6,4.9,5.7l5.9,0.1c3.8,0,5-0.5,6.7-2.3c2-2.3,3.5-4.9,4.6-7.7L446,987.2z"/>
	</g>
</g>
<g>

		<image style="overflow:visible;opacity:0.75;" width="70" height="80" xlink:href="8A7226F43D5FBE3D.png"  transform="matrix(1 0 0 1 442 942)">
	</image>
	<g>
		<path class="st0" d="M489.8,987.8c-0.5,2-2.5,9.7-3.2,11.9h-36.4v-2.1c7-0.5,7.5-1.2,7.5-7.3v-29.6c0-6.7-0.8-7-6.5-7.6v-2h22.9
			c7,0,10-0.1,10.9-0.2c0.1,1.9,0.4,7.5,0.7,11.5l-2.2,0.4c-0.5-2-1.3-3.9-2.2-5.7c-1.2-2.5-2.9-3-7.4-3h-7.1
			c-2.3,0-2.5,0.2-2.5,2.4V973h8.3c5.6,0,6-1.1,6.9-6.2h2.3v15.5h-2.3c-1-5.4-1.6-6.2-7-6.2h-8.2V991c0,5.2,1.6,5.7,5.4,5.8h7
			c4.6,0,5.3-0.7,7-2.6c1.6-2.1,3-4.4,4-6.9L489.8,987.8z"/>
	</g>
</g>
<g>

		<image style="overflow:visible;opacity:0.75;" width="66" height="80" xlink:href="8A7226F43D5FBE3E.png"  transform="matrix(1 0 0 1 487 942)">
	</image>
	<g>
		<path class="st0" d="M527.8,962.7c-0.5-1.9-1.3-3.8-2.3-5.5c-1.4-2.5-2.5-3.2-6.8-3.2h-8c-2.2,0-2.4,0.2-2.4,2.4v17.3h9.3
			c5.4,0,5.8-0.9,6.9-6.2h2.2v15.7h-2.3c-1-5.2-1.5-6.5-6.8-6.5h-9.3v13.4c0,6.5,0.8,6.8,7.6,7.4v2.1h-20.9v-2.1
			c6.1-0.5,6.8-1,6.8-7.4v-29.7c0-6.5-0.8-6.8-6.8-7.4v-2h23.8c6.8,0,9.3-0.1,10.6-0.2c0.1,2.7,0.4,8,0.8,11.5L527.8,962.7z"/>
	</g>
</g>
<g>

		<image style="overflow:visible;opacity:0.75;" width="74" height="81" xlink:href="8A7226F43D5FBE3F.png"  transform="matrix(1 0 0 1 528 941)">
	</image>
	<g>
		<path class="st0" d="M577.5,962.7c-0.5-2.2-1.4-4.2-2.4-6.2c-1.2-2-2-2.5-6.1-2.5h-7.5v36.5c0,5.8,0.6,6.7,7.7,7.1v2.1h-21.8v-2.1
			c7-0.5,7.6-1.2,7.6-7.1V954h-6.8c-4.1,0-5.3,0.5-6.6,2.7c-1,1.9-1.8,4-2.5,6.1h-2.2c0.5-4.6,0.9-9.3,1.1-13.5h1.7
			c1.1,1.8,2,1.7,4,1.7h29.7c2.1,0,2.7-0.3,3.8-1.7h1.8c0,3.5,0.3,8.9,0.7,13.3L577.5,962.7z"/>
	</g>
</g>
<g>

		<image style="overflow:visible;opacity:0.75;" width="81" height="82" xlink:href="8A7226F43D5FBE24.png"  transform="matrix(1 0 0 1 577 941)">
	</image>
	<g>
		<path class="st0" d="M611.2,949.9c12.8,0,24.3,9.8,24.3,24.8c0,16.1-11,26.2-24.8,26.2c-14.4,0-24.9-11-24.9-25
			C585.9,962.3,595.4,949.9,611.2,949.9z M609.8,952.7c-8.4,0-16,7-16,21.1S601.3,998,612,998c9.1,0,15.9-6.8,15.9-21.2
			C627.9,961,619.6,952.7,609.8,952.7L609.8,952.7z"/>
	</g>
</g>
<g>

		<image style="overflow:visible;opacity:0.75;" width="81" height="80" xlink:href="8A7226F43D5FBE25.png"  transform="matrix(1 0 0 1 631 943)">
	</image>
	<g>
		<path class="st0" d="M689.8,953c-5,0.7-6.3,1.3-9,8.1c-2,5-12.4,30.1-16,39.4h-2.5c-4.4-12.1-10.9-29.6-15.2-40.7
			c-2.1-5.5-3.4-6.3-8-6.8v-2h19.1v2.1c-5.5,0.6-5.8,1.5-4.8,4.3c1.9,5.5,7.3,20.4,12.1,32.8c4-9.7,8.9-21.9,12.4-31.3
			c1.7-4.3,0.8-5-5.4-5.8V951h17.2V953z"/>
	</g>
</g>
<g>

		<image style="overflow:visible;opacity:0.75;" width="70" height="80" xlink:href="8A7226F43D5FBE26.png"  transform="matrix(1 0 0 1 684 942)">
	</image>
	<g>
		<path class="st0" d="M731.6,987.8c-0.5,2-2.5,9.7-3.2,11.9H692v-2.1c7-0.5,7.5-1.2,7.5-7.3v-29.6c0-6.7-0.8-7-6.5-7.6v-2h23
			c7,0,10-0.1,10.9-0.2c0.1,1.9,0.4,7.5,0.7,11.5l-2.2,0.4c-0.5-2-1.3-3.9-2.3-5.7c-1.2-2.5-2.9-3-7.4-3h-7.1
			c-2.3,0-2.5,0.2-2.5,2.4V973h8.3c5.6,0,6-1.1,6.9-6.2h2.3v15.5h-2.3c-1-5.4-1.6-6.2-7-6.2H706V991c0,5.2,1.7,5.7,5.4,5.8h7
			c4.6,0,5.3-0.7,7-2.6c1.6-2.1,3-4.4,4-6.9L731.6,987.8z"/>
	</g>
</g>
<g>

		<image style="overflow:visible;opacity:0.75;" width="76" height="80" xlink:href="8A7226F43D5FBE5A.png"  transform="matrix(1 0 0 1 728 943)">
	</image>
	<g>
		<path class="st0" d="M781.3,1000.3c-1,0-1.8-0.1-2.8-0.2c-5.5-0.4-8.4-1.8-11.7-6.5c-2.8-3.8-5.5-8.5-7.9-12.4
			c-1.5-2.4-2.5-2.8-6.3-2.8h-2.6v11.8c0,6.4,0.8,6.8,6.8,7.3v2.1h-20v-2.1c6.2-0.7,6.8-1,6.8-7.3v-29.9c0-6.4-0.8-6.6-6.8-7.3v-2
			H756c5.5,0,9.2,0.7,12,2.5c3.3,2.2,5.3,5.9,5.1,9.9c0,6.5-4.1,10.5-9.7,12.9c1.3,2.3,4.6,7.3,6.8,10.7c1.8,2.7,3.8,5.3,5.9,7.7
			c1.4,1.7,3.3,2.9,5.5,3.5L781.3,1000.3z M753.7,975.9c3.9,0,6.4-0.6,8.2-2.2c2.9-2.2,4.1-5.2,4.1-9.2c0-8-5.3-11-11.1-11
			c-2.2,0-3.5,0.3-4,0.8s-0.9,1.3-0.9,3.2v18.4H753.7z"/>
	</g>
</g>
<g>

		<image style="overflow:visible;opacity:0.75;" width="61" height="82" xlink:href="8A7226F43D5FBE59.png"  transform="matrix(1 0 0 1 777 941)">
	</image>
	<g>
		<path class="st0" d="M811.6,962.3c-1.3-5-3.4-9.8-10.4-9.8c-5.8,0-7.9,4.3-7.9,8.2c0,5.2,3.3,7.8,9.5,11c9,4.7,12.9,8.1,12.9,15.2
			c0,7.9-6.8,13.9-16.5,13.9c-3.9-0.1-7.8-0.9-11.5-2.5c-0.9-3.7-1.5-7.5-2-11.2l2.3-0.6c1.5,5,4.8,11.5,12.6,11.5
			c4.5,0.3,8.4-3.2,8.7-7.8c0-0.3,0-0.6,0-0.9c0-5.8-3.1-8.1-9.7-11.7c-7.9-4.3-12.3-7.9-12.3-14.8c0-6.7,5.5-13,15.5-13
			c3.3,0.1,6.7,0.6,9.9,1.4c0.3,2.7,0.6,5.7,1.2,10.6L811.6,962.3z"/>
	</g>
</g>
</svg>
