<svg id="Layer_1" data-name="Layer 1" xmlns="http://www.w3.org/2000/svg" viewBox="0 0 1000 1100"><title>re-drawn</title><polygon points="470 484 510 103 519 471 746 260 539.5 508.5 924.5 570.5 534.5 549.5 760.5 832.5 511.5 595.5 481.5 811.5 482.5 597.5 288.5 864.5 452.5 574.5 127.5 627.5 445.5 528.5 232.5 311.5 470 484"/><circle cx="511" cy="100" r="22"/><circle cx="285" cy="865" r="22"/><circle cx="127" cy="628" r="22"/><circle cx="236" cy="315" r="19"/><circle cx="742" cy="264" r="16"/><circle cx="923" cy="574" r="23"/><circle cx="758" cy="832" r="23"/><circle cx="482" cy="812" r="17"/><path d="M278.48,962.72a27.9,27.9,0,0,0-2.4-6.22c-1.2-2-1.95-2.55-6.07-2.55h-7.5v36.52c0,5.85.6,6.68,7.72,7.13v2.1H248.41v-2.1c7-.45,7.57-1.2,7.57-7.13V954h-6.82c-4.13,0-5.33.45-6.6,2.7a34.68,34.68,0,0,0-2.48,6.07h-2.25c.45-4.57.9-9.3,1.13-13.5h1.72c1.13,1.8,1.95,1.73,4,1.73h29.7c2.1,0,2.7-.3,3.83-1.73h1.8c0,3.53.3,8.93.67,13.28Z"/><path d="M339.08,953.05c-6.22.6-6.82,1-6.82,7.27V990.4c0,6.3.67,6.52,6.82,7.2v2.1H319v-2.1c6.23-.75,6.83-.9,6.83-7.2v-15H300.16v15c0,6.22.6,6.45,6.75,7.2v2.1h-20v-2.1c6.08-.68,6.75-.9,6.75-7.2V960.32c0-6.3-.67-6.67-6.75-7.27V951h20v2.1c-6,.52-6.75,1.05-6.75,7.27v11.93h25.65V960.32c0-6.22-.83-6.75-6.83-7.27V951h20.1Z"/><path d="M385.58,987.77c-.45,2-2.47,9.68-3.22,11.93H345.91v-2.1c7-.53,7.5-1.2,7.5-7.35V960.62c0-6.67-.83-7-6.45-7.57V951h23c7,0,10-.08,10.87-.15.08,1.87.38,7.5.68,11.47l-2.25.38A25.35,25.35,0,0,0,377,957c-1.2-2.48-2.93-3-7.43-3h-7.12c-2.33,0-2.48.22-2.48,2.4v16.57h8.33c5.62,0,6-1.12,6.9-6.22h2.32v15.45h-2.32c-1-5.4-1.58-6.15-7-6.15h-8.25v14.92c0,5.25,1.65,5.7,5.4,5.78h7c4.57,0,5.32-.68,7-2.63a31.84,31.84,0,0,0,4.05-6.9Z"/><path d="M446,987.25c-.45,2.32-2.7,10.12-3.45,12.45H407.63v-2.1c6.83-.68,7.43-1.05,7.43-7.43V960.4c0-6.38-.75-6.75-6.75-7.35V951H428.4v2.1c-6,.6-6.82.9-6.82,7.35v30.52c0,4.58.6,5.63,4.88,5.7l5.92.08c3.82,0,4.95-.45,6.67-2.33a25.44,25.44,0,0,0,4.58-7.72Z"/><path d="M489.83,987.77c-.45,2-2.48,9.68-3.23,11.93H450.16v-2.1c7-.53,7.5-1.2,7.5-7.35V960.62c0-6.67-.83-7-6.45-7.57V951h22.94c7.05,0,10-.08,10.88-.15.07,1.87.37,7.5.67,11.47l-2.25.38a24.44,24.44,0,0,0-2.25-5.7c-1.2-2.48-2.92-3-7.42-3h-7.13c-2.32,0-2.47.22-2.47,2.4v16.57h8.32c5.63,0,6-1.12,6.9-6.22h2.33v15.45H479.4c-1-5.4-1.57-6.15-7-6.15h-8.25v14.92c0,5.25,1.65,5.7,5.4,5.78h7c4.58,0,5.33-.68,7-2.63a32.25,32.25,0,0,0,4.05-6.9Z"/><path d="M527.85,962.65a23.08,23.08,0,0,0-2.32-5.55c-1.43-2.55-2.55-3.15-6.75-3.15h-8c-2.17,0-2.4.22-2.4,2.4v17.32h9.3c5.4,0,5.78-.9,6.9-6.15h2.25V983.2h-2.32c-1-5.25-1.5-6.45-6.83-6.45h-9.3v13.42c0,6.53.75,6.83,7.58,7.43v2.1H495.08v-2.1c6.07-.45,6.75-1,6.75-7.43v-29.7c0-6.52-.75-6.82-6.75-7.42V951h23.77c6.75,0,9.3-.08,10.58-.15.07,2.7.37,8,.75,11.55Z"/><path d="M577.5,962.72a27.9,27.9,0,0,0-2.4-6.22c-1.2-2-2-2.55-6.07-2.55h-7.5v36.52c0,5.85.6,6.68,7.72,7.13v2.1H547.43v-2.1c7-.45,7.57-1.2,7.57-7.13V954h-6.82c-4.13,0-5.33.45-6.6,2.7a34.68,34.68,0,0,0-2.48,6.07h-2.25c.45-4.57.9-9.3,1.13-13.5h1.72c1.13,1.8,1.95,1.73,4,1.73h29.7c2.1,0,2.7-.3,3.83-1.73h1.8c0,3.53.3,8.93.67,13.28Z"/><path d="M611.25,949.9c12.83,0,24.3,9.82,24.3,24.75,0,16.12-10.95,26.17-24.75,26.17-14.4,0-24.9-11-24.9-25.05C585.9,962.35,595.43,949.9,611.25,949.9Zm-1.5,2.77c-8.4,0-16,7.05-16,21.08S601.35,998,612,998c9.08,0,15.9-6.75,15.9-21.22C627.9,961,619.58,952.67,609.75,952.67Z"/><path d="M689.77,953.05c-5,.67-6.3,1.35-9,8.1-2,5-12.37,30.07-16,39.37h-2.48c-4.42-12.07-10.87-29.62-15.15-40.72-2.1-5.55-3.37-6.3-8-6.75V951H658.2v2.1c-5.55.6-5.85,1.5-4.8,4.27,1.88,5.48,7.35,20.4,12.08,32.85,4-9.67,8.92-21.9,12.44-31.35,1.65-4.35.75-5-5.4-5.77V951h17.25Z"/><path d="M731.62,987.77c-.45,2-2.47,9.68-3.22,11.93H692v-2.1c7-.53,7.5-1.2,7.5-7.35V960.62c0-6.67-.83-7-6.45-7.57V951h23c7,0,10-.08,10.87-.15.08,1.87.38,7.5.68,11.47l-2.25.38A25.35,25.35,0,0,0,723,957c-1.2-2.48-2.93-3-7.43-3h-7.12c-2.33,0-2.48.22-2.48,2.4v16.57h8.33c5.62,0,6-1.12,6.9-6.22h2.32v15.45H721.2c-1-5.4-1.58-6.15-7-6.15H706v14.92c0,5.25,1.65,5.7,5.4,5.78h7c4.57,0,5.32-.68,7-2.63a31.84,31.84,0,0,0,4-6.9Z"/><path d="M781.35,1000.3c-1,0-1.8-.08-2.78-.15-5.47-.38-8.4-1.8-11.7-6.45-2.77-3.83-5.47-8.55-7.87-12.38-1.5-2.4-2.48-2.85-6.3-2.85h-2.63v11.78c0,6.37.83,6.75,6.83,7.35v2.1h-20v-2.1c6.23-.68,6.75-1,6.75-7.35V960.32c0-6.37-.82-6.6-6.75-7.27V951H756c5.47,0,9.15.67,12,2.55a11.21,11.21,0,0,1,5.1,9.9c0,6.45-4.13,10.5-9.68,12.9,1.35,2.32,4.58,7.35,6.83,10.72a69.13,69.13,0,0,0,5.92,7.73,10.84,10.84,0,0,0,5.48,3.45Zm-27.68-24.38c3.9,0,6.38-.6,8.25-2.17,2.93-2.18,4.13-5.18,4.13-9.23,0-8-5.33-10.95-11.1-10.95-2.18,0-3.45.3-4,.75s-.9,1.28-.9,3.23v18.37Z"/><path d="M811.57,962.35c-1.27-5-3.37-9.83-10.42-9.83-5.85,0-7.88,4.28-7.88,8.18,0,5.17,3.3,7.8,9.53,11,9,4.65,12.9,8.1,12.9,15.23,0,7.87-6.83,13.87-16.5,13.87a31.34,31.34,0,0,1-11.48-2.47,101.34,101.34,0,0,1-2-11.25l2.32-.6c1.5,5,4.8,11.55,12.6,11.55a8.25,8.25,0,0,0,8.7-8.63c0-5.77-3.07-8.1-9.67-11.7-7.88-4.27-12.3-7.87-12.3-14.85,0-6.67,5.55-13,15.45-13a48.15,48.15,0,0,1,9.9,1.42c.3,2.7.6,5.7,1.2,10.58Z"/></svg>
